<svg width="24" height="24" viewBox="0 0 24 24" fill="none" xmlns="http://www.w3.org/2000/svg">
<path d="M8.76084 17.762H15.2451C15.4661 17.762 15.6513 17.6863 15.8008 17.535C15.9503 17.3836 16.0251 17.1961 16.0251 16.9722C16.0251 16.7502 15.9503 16.5654 15.8008 16.4177C15.6513 16.2701 15.4661 16.1962 15.2451 16.1962H8.75509C8.53409 16.1962 8.34884 16.2713 8.19934 16.4215C8.04984 16.5716 7.97509 16.7578 7.97509 16.98C7.97509 17.202 8.05042 17.3878 8.20109 17.5375C8.35175 17.6871 8.53834 17.762 8.76084 17.762ZM8.76084 13.512H15.2451C15.4661 13.512 15.6513 13.4363 15.8008 13.285C15.9503 13.1336 16.0251 12.9461 16.0251 12.7222C16.0251 12.5002 15.9503 12.3154 15.8008 12.1677C15.6513 12.0201 15.4661 11.9462 15.2451 11.9462H8.75509C8.53409 11.9462 8.34884 12.0213 8.19934 12.1715C8.04984 12.3216 7.97509 12.5078 7.97509 12.73C7.97509 12.952 8.05042 13.1378 8.20109 13.2875C8.35175 13.4371 8.53834 13.512 8.76084 13.512ZM5.55384 22.1495C5.09384 22.1495 4.695 21.9806 4.35734 21.6427C4.0195 21.3051 3.85059 20.9062 3.85059 20.4462V3.55373C3.85059 3.09207 4.0195 2.69181 4.35734 2.35298C4.695 2.01398 5.09384 1.84448 5.55384 1.84448H13.8761C14.1119 1.84448 14.3367 1.89215 14.5503 1.98748C14.764 2.08282 14.9474 2.20706 15.1006 2.36023L19.6398 6.89948C19.793 7.05265 19.9173 7.23606 20.0126 7.44973C20.1079 7.6634 20.1556 7.88815 20.1556 8.12398V20.4462C20.1556 20.9062 19.9861 21.3051 19.6471 21.6427C19.3083 21.9806 18.908 22.1495 18.4463 22.1495H5.55384ZM13.7213 7.35223V3.55373H5.55384V20.4462H18.4463V8.20373H14.5728C14.3325 8.20373 14.1305 8.1219 13.9668 7.95823C13.8032 7.79457 13.7213 7.59257 13.7213 7.35223Z" fill="#382F41"/>
</svg>
